<svg xmlns="http://www.w3.org/2000/svg" xmlns:xlink="http://www.w3.org/1999/xlink" width="102.807" height="103.903" viewBox="0 0 102.807 103.903">
  <defs>
    <linearGradient id="linear-gradient" x1="0.5" x2="0.5" y2="1" gradientUnits="objectBoundingBox">
      <stop offset="0" stop-color="#26c1f6"/>
      <stop offset="1" stop-color="#004684"/>
    </linearGradient>
  </defs>
  <g id="Group_2214" data-name="Group 2214" transform="translate(207.013 -2265.052)">
    <path id="Path_63" data-name="Path 63" d="M48.76,90.951A41.77,41.77,0,1,1,90.3,49.182,41.7,41.7,0,0,1,48.76,90.951m0-82.509A40.74,40.74,0,1,0,89.278,49.182,40.675,40.675,0,0,0,48.76,8.442" transform="translate(-204.369 2267.822)" fill="#ffc727"/>
    <g id="Group_2214-2" data-name="Group 2214" transform="translate(-207.013 2265.052)">
      <path id="Path_61" data-name="Path 61" d="M54.08,1.822h0a2.875,2.875,0,0,0,5.071.536,2.878,2.878,0,0,1,5.235,1.12,2.878,2.878,0,0,0,4.85,1.584,2.882,2.882,0,0,1,4.891,2.19,2.882,2.882,0,0,0,4.416,2.563,2.886,2.886,0,0,1,4.331,3.164,2.89,2.89,0,0,0,3.79,3.431,2.891,2.891,0,0,1,3.581,4,2.9,2.9,0,0,0,3,4.149,2.9,2.9,0,0,1,2.676,4.661A2.9,2.9,0,0,0,97.995,33.9a2.9,2.9,0,0,1,1.653,5.118,2.9,2.9,0,0,0,1.06,5.015,2.9,2.9,0,0,1,.56,5.352h0a2.905,2.905,0,0,0,0,5.127,2.9,2.9,0,0,1-.56,5.353,2.9,2.9,0,0,0-1.06,5.015A2.9,2.9,0,0,1,97.995,70a2.9,2.9,0,0,0-2.075,4.684,2.9,2.9,0,0,1-2.676,4.661,2.9,2.9,0,0,0-3,4.149,2.891,2.891,0,0,1-3.581,4,2.889,2.889,0,0,0-3.79,3.431,2.887,2.887,0,0,1-4.331,3.164,2.882,2.882,0,0,0-4.416,2.563,2.882,2.882,0,0,1-4.891,2.19,2.878,2.878,0,0,0-4.85,1.584,2.878,2.878,0,0,1-5.235,1.12,2.875,2.875,0,0,0-5.071.536,2.877,2.877,0,0,1-5.353,0,2.875,2.875,0,0,0-5.071-.536,2.878,2.878,0,0,1-5.235-1.12,2.878,2.878,0,0,0-4.85-1.584,2.882,2.882,0,0,1-4.891-2.19,2.882,2.882,0,0,0-4.416-2.563,2.887,2.887,0,0,1-4.331-3.164,2.889,2.889,0,0,0-3.79-3.431,2.891,2.891,0,0,1-3.581-4,2.9,2.9,0,0,0-3-4.149,2.9,2.9,0,0,1-2.676-4.661A2.9,2.9,0,0,0,4.813,70a2.9,2.9,0,0,1-1.655-5.118A2.9,2.9,0,0,0,2.1,59.868a2.9,2.9,0,0,1-.56-5.353,2.905,2.905,0,0,0,0-5.127h0a2.9,2.9,0,0,1,.56-5.352,2.9,2.9,0,0,0,1.06-5.015A2.9,2.9,0,0,1,4.813,33.9a2.9,2.9,0,0,0,2.074-4.684,2.9,2.9,0,0,1,2.676-4.661,2.9,2.9,0,0,0,3-4.149,2.891,2.891,0,0,1,3.581-4,2.889,2.889,0,0,0,3.79-3.431,2.886,2.886,0,0,1,4.331-3.164A2.882,2.882,0,0,0,28.679,7.25a2.882,2.882,0,0,1,4.891-2.19,2.878,2.878,0,0,0,4.85-1.584,2.878,2.878,0,0,1,5.235-1.12,2.875,2.875,0,0,0,5.071-.536,2.877,2.877,0,0,1,5.353,0" transform="translate(0 0)" fill="#ffc727"/>
      <path id="Path_62" data-name="Path 62" d="M94.263,50.036A44.666,44.666,0,1,1,49.6,5.126a44.788,44.788,0,0,1,44.666,44.91" transform="translate(1.807 1.916)" fill="url(#linear-gradient)"/>
      <path id="Path_64" data-name="Path 64" d="M40.81,74.087,16.324,49.467l10.049-10.1L40.81,53.878,86.778,7.659l10.05,10.1Z" transform="translate(5.979 2.862)" fill="#fff"/>
    </g>
  </g>
</svg>
